<svg version="1" xmlns="http://www.w3.org/2000/svg" width="552" height="552" viewBox="0 0 414.000000 414.000000"><path d="M117 43v43h-2.2c-1.7 0-1.9.3-.9.9 1.9 1.2-1.5 3-4.9 2.4-2.4-.3-2.4-.3-.5 1.3 1.7 1.3 1.7 1.5.3 1-1-.3-1.8-.1-1.8.4 0 .6-.9 1-2 1-1.3 0-1.8.5-1.4 1.5.4.9 0 1.5-.9 1.5s-2 .7-2.5 1.6c-.5.9-1.1 1.5-1.3 1.4-.2-.1-1.2.2-2.2.6-1.5.5-1.6.9-.5 1.5 1 .7.8.9-.7 1-1.1.1-2.3.1-2.7 0-.5 0-.8.4-.8 1 0 .5-.4.7-1 .4-.6-.3-.7.1-.4.9.4 1.1 0 1.6-1.5 1.6-1.2 0-2.1.6-2.1 1.5s-.9 1.5-2.1 1.5c-1.8 0-1.9.2-.9 1.5 1.1 1.3.2 2.1-1.5 1.2-.7-.4-3.4 3.7-2.9 4.5.3.4-.2.5-1 .2-1.1-.4-1.6 0-1.6 1.5 0 1.4-.5 1.9-1.5 1.5-1-.4-1.5 0-1.5 1.5 0 1.4-.6 2.1-2 2.1-1.3 0-1.8.5-1.4 1.5.6 1.4-.6 2-2.9 1.6-.5-.1-.6.3-.3.8.4.5.1 2.2-.5 3.7-.8 2.3-1.2 2.5-1.9 1.4s-1-.9-1 1.2c0 1.5-.5 3-1 3.3-.6.4-.8 1-.5 1.5.3.4-.3.7-1.3.6-1.1-.1-1.6.5-1.4 1.7.2 1-.2 1.6-1 1.5-.6-.2-1.2.3-1.3 1 0 .8-.8 1.9-1.7 2.6-.9.7-1.9 2.6-2.2 4.2-.2 1.6-.5 3.1-.5 3.4-.1.3-.6-.2-1.1-1-.9-1.3-1-1.3-1.1 0-.1.8-.1 1.9 0 2.4.4 1.6-2.1 5.6-3.1 5-.5-.3-.8-.2-.7.3.4 2.5-.2 6.3-1.2 6.3-.5 0-.7-.6-.3-1.3.5-.9.4-.9-.6-.1-.6.7-1.2 2.8-1.2 4.7 0 2.9-.3 3.5-1.8 3.2-1.3-.3-1.7.1-1.3 1.1.3.7 1 1.1 1.7.7.6-.3.4.2-.5 1.3-.9 1-1.5 2.9-1.4 4.1.1 1.3-.2 2.3-.7 2.3-.5 0-.6.6-.2 1.2.5.9.2.9-.9-.1-1.6-1.2-1.7-.9-1.8 4-.1 3-.2 6.2-.2 7.1 0 1-.4 1.5-.8 1.2-.5-.3-.7-.9-.5-1.3.3-.4.1-1.3-.3-2-.5-.8-.8-.1-.8 2 .1 9.6-.7 15-2.1 14.4-.8-.3-1.2 0-.9.7.2.7 1 1.2 1.6 1 .7-.1 1 .2.6.8-.3.6-1 .8-1.5.5-1.1-.7-1.5 5.8-1.4 25.2.1 22.1.5 30.3 1.5 29.7.5-.2.6-1.1.3-1.8-.3-.8-.2-1.6.3-1.9.4-.3.9 1.6 1 4.1.4 12.8.6 15.3 1.6 15.9.6.3.7.1.3-.5-.4-.7-.2-1.2.3-1.2 1.5 0 1.4 1.3-.1 2.9-1 1.1-1 1.3-.1.7.9-.5 1.3.1 1.4 1.6.1 1.3.2 3.6.3 5.3.2 2.1.7 2.9 1.8 2.7.9-.1 1.5.5 1.5 1.5 0 4.4.3 5.4 1.6 4.7.7-.5.6 0-.3 1.1-.8 1-1 1.6-.3 1.2.7-.5 1.4.4 1.9 2.5.4 1.8.7 3.7.6 4.1-.1.4.5 1 1.3 1.3.8.4 1.5 1.7 1.5 3.1 0 1.7.4 2.2 1.2 1.7.8-.5.7 0-.2 1.1-1.4 1.7-1.3 1.8.3 1.2 1.6-.6 1.9-.3 2.1 3.3.1.8.6 1.5 1.3 1.5.6 0 1.5.4 2 .9.4.5.3.6-.4.2-.6-.3-1.4-.2-1.8.4-.3.5.1 1 .9 1 1.1 0 1.6 1 1.7 2.7 0 1.6.3 2.2.6 1.5.8-1.9 2.3-.3 2.3 2.5 0 1.7.7 2.7 2 3 1.2.3 1.9 1.2 1.8 2.1-.2.9.2 1.7.9 1.7.6 0 1.5.4 2 .9.4.5.3.6-.4.2-.6-.3-1.4-.2-1.7.3-.3.5.4 1.1 1.5 1.4 1.5.4 2 1.1 1.5 2.2-.3 1-.2 1.4.5 1 .6-.4 1.3.2 1.6 1.4.5 1.9 1.5 2.6 3.6 2.2.5-.1.6.3.3.8s-.3 1.6 0 2.5c.5 1.3 1 1.4 2 .5 1-.8 1.2-.6.9 1-.2 1.2 0 2.1.5 2.1s.7.8.3 1.7c-.5 1.5-.3 1.5 1.1-.2 1.5-1.7 1.7-1.7 1.2-.2-.4 1.2 0 1.7 1.7 1.8 1.2 0 1.6.3 1 .6-1.4.5-1.8 2.4-.5 2.2 3-.5 4.4.2 3.9 2.1-.3 1.1-.1 1.8.3 1.5.5-.3 1.1-.1 1.5.5.4.6 1.1.8 1.6.5.8-.5 1.4 1.5 1 3.7 0 .4.7.4 1.6.1 1.1-.4 1.4-.3.9.5-.5.8 0 1.2 1.3 1.2 1.1 0 2.3.5 2.7 1.2.4.6.3.8-.4.4-.6-.3-1.4-.1-1.8.5-.4.7-.3.9.4.5.6-.3 1.4-.1 1.7.5.4.5 1.3.8 2.1.5.9-.3 1.4.2 1.4 1.4 0 1.4.7 2 2.1 2 1.5 0 1.9.5 1.5 1.5-.3 1 .1 1.5 1.4 1.6 4.1.3 4.5.5 4.2 2.2-.2 1 .2 1.7 1 1.6 2.6-.3 3.9.1 3.3 1.1-.3.6.1 1 .9 1s2.2 1 3.2 2.2c1.5 2 1.6 2.1 1 .3-.6-1.9-.5-1.9.8-.2.7.9 1.7 1.7 2.1 1.7.4 0 1.4.8 2.1 1.7 1.3 1.7 1.4 1.7.7-.1-.4-1.3-.3-1.7.5-1.2.7.4 1.2 1.3 1.2 2.1s.8 1.2 2 1c1.5-.3 2 .2 2 1.6 0 1.1.5 1.7 1 1.4.6-.4.7-1.1.4-1.7-.4-.7-.2-.8.5-.4.6.4.9 1.2.6 1.7-.4.5.4 1 1.7 1.1 4.3.2 4.7.3 5.5 1.2.4.5.3.6-.4.2-.6-.3-1.4-.2-1.8.4-.4.6.8 1 2.9 1 1.9 0 3.7.4 4.1.9 1.2 2 6.3 3.9 7.4 2.8.8-.8 1.1-.7 1.1.2 0 1 .3 1.1 1.4.2 1.1-.9 1.6-.9 2.2 0 .4.7.3.9-.3.6-.6-.4-1.3-.1-1.6.6-.3.8.3 1.3 1.7 1.4 8.2.2 8.5.3 7.9 2.1-.5 1.4-.3 1.4 1.1-.3 1.3-1.4 1.6-1.5 1.3-.4-.5 1.6.9 1.8 15.1 2.2 1.2.1 2.2.5 2.2 1s-.7.7-1.5.4c-.8-.4-1.7-.2-1.9.2-.3.5 11.6.9 26.4 1 18.4.2 27-.1 27-.8 0-.6.5-1.1 1.1-1.1.5 0 .8.4.5.8-.2.4.7.7 2.2.6 4.1-.2 4.4-.3 3.7-1.4-.4-.6 2.2-1 6.9-1 4.9 0 7.6-.4 7.6-1.1 0-.6-.7-.9-1.5-.5-.8.3-1.5.1-1.5-.4 0-.6 1.2-1 2.8-1 1.5 0 4.4-.1 6.5-.2 3.3-.2 3.7-.6 3.3-2.3-.4-1.7-.2-1.6 1.4.5 1.8 2.3 1.9 2.3 1.4.3-.5-1.9-.2-2.1 2.1-1.8 1.7.1 3.5-.5 4.6-1.6 2.2-2.2 3.4-2.5 2.3-.7-.6 1-.5 1 .8.1.8-.7 2.7-1.4 4.2-1.5 3-.3 3.5-1.4.9-2.1-1-.3-.1-.5 2-.6 2.5-.1 3.7-.6 3.7-1.5 0-1 1.6-1.7 4.6-2.2 3.1-.4 4.2-.9 3.3-1.5-.8-.5-1.1-.9-.6-1 .4-.1 1.2-.3 1.7-.4.6-.1 1.9-.3 3-.4 1.3-.1 1.7-.6 1.3-1.6-.3-.9-.2-1.5.3-1.4 1.9.5 6.4-1.4 6.4-2.6 0-.7.8-1.2 1.7-1.1 1 0 1.8-.5 1.8-1.3 0-1.6 4.9-3.3 6.1-2.2.4.3.4.1.1-.5-.8-1.4 1.7-3.7 2.8-2.6.5.4.6-.1.2-1-.6-1.7 1.7-3.3 3.5-2.2.5.3.8-.2.6-1.2-.2-1.3.3-1.9 1.5-1.8 1 .1 1.7-.5 1.7-1.7s.7-1.9 2-1.9c1.1 0 1.9-.3 1.9-.8-.4-2.1.3-3.1 1.6-2.5.9.3 1.5.2 1.4-.3-.3-2 .2-3.4 1.2-3.4.5 0 .7.4.4 1-.3.5-.4 1 0 1 .3 0 1-1.1 1.5-2.5s1.6-2.5 2.4-2.5c.7 0 1.3-.8 1.2-1.8 0-.9.5-1.6 1.2-1.4.7.1 1.7-.9 2.2-2.4.6-1.4 1.4-2.3 1.9-2 .5.3 1.1-.4 1.4-1.5.3-1.2 1-1.8 1.6-1.4.6.3 1.2-.3 1.2-1.4.2-3.3.4-3.9 1.2-4.7.4-.4.7.1.8 1.2 0 1.6.2 1.5 1-.4.5-1.3.7-2.8.3-3.3-.5-.8 1-1.3 3-1 .5.1.6-.5.3-1.3-.4-.9-.2-1.8.3-2.1.5-.3.8-1.1.6-1.8-.1-.7-.1-.9.1-.5 1 1.7 2.3.7 2.3-1.6 0-1.4.5-2.8 1.2-3.2.7-.4.8-.3.4.4-.4.8-.2 1 .7.6.8-.3 1.4-1.1 1.4-1.7-.1-4.2.4-5.9 1.7-5.4.7.3 1.3 0 1.3-.6-.1-3.9.5-5.7 1.8-5.7 1 0 1.5-1.1 1.5-3.5 0-3.1.7-3.9 3.1-3.7.3 0 .5-2.1.5-4.8-.1-3.8.2-4.6 1.2-3.8.9.8 1.2.6 1.3-.8.1-1.1.1-2.2 0-2.7 0-.4.3-.7.9-.7.6 0 .6-.9 0-2.5s-.6-2.5 0-2.5c.5 0 .7-.8.4-1.7-.5-1.7-.5-1.7.6 0 .6.9.8 2.2.4 2.9-.4.6-.3.8.3.5.5-.4 1.1-3.4 1.2-6.7.1-4.6.7-6.6 2.2-8.1 1.6-1.6 1.8-2.3.8-3.5-.6-.8-.7-1.4-.2-1.4.5 0 .9-3.1.9-6.9-.1-3.8.3-6.7.7-6.4.5.3.6 1.1.4 1.7-.3.7.1 1.3.8 1.3 1 0 1.1-.5.4-1.8-1.2-2.4-1.1-3.2.3-2.3.7.4.8.3.4-.5-.4-.6-1.1-.9-1.6-.6-.5.3-1.2.1-1.5-.5-.4-.6-.3-1 .2-.9 2.6.4 2.8-.9 2.7-16.4-.2-20.9 0-19.2-2.1-17.6-1.6 1.2-1.7 1.2-.6-.2.7-.9 1-1.9.6-2.3-.4-.4.1-.4 1.2-.1 1.9.6 1.9.6.2-.8-1.4-1.2-2-3.2-2.2-8.6-.2-3.8-.6-7.4-.9-8-.3-.5 0-1.2.6-1.4.8-.4.7-.6-.4-.6-.9-.1-2-.6-2.4-1.3-.5-.8-.2-.9 1.1-.4 1.8.6 1.8.6.2-1.2-.9-1-1.7-3.3-1.7-5.1 0-1.8-.7-3.9-1.5-4.7-.8-.9-1.6-2.4-1.6-3.5-.1-1-.3-2.4-.4-2.9-.1-.6-.3-1.9-.4-3 0-1.1-.7-2-1.4-2-.9 0-1.3-1.1-1.2-3 .1-1.7-.2-3-.6-3-.4 0-.6-.9-.4-2 .2-1.2 0-1.8-.6-1.5-.5.4-.7 1-.4 1.5.3.5.1 1.2-.5 1.5-.6.4-1 .3-.9-.2.1-.4.1-2.3 0-4.2-.1-2.2-.5-3.2-1.4-2.8-1.2.5-1.4-.2-2-5.8-.1-1.4-1-2.8-1.9-3.1-1.1-.3-1.8-1.5-1.8-3 0-1.3-.5-2.4-1.1-2.4-.5 0-.7.4-.4 1 .3.5.1 1-.4 1-.6 0-1.1-1.3-1.1-2.9 0-1.6-.6-3.1-1.5-3.5-.8-.3-1.5-1.2-1.5-2.1 0-.8-.7-1.5-1.5-1.5s-1.5-.9-1.5-2.1c0-1.2-.4-1.7-1.1-1.3-.8.4-.8 0 0-1.5 1-1.7.9-2-.4-1.4-1.1.4-1.8-.1-2.2-1.6-.3-1.1-1.2-2.1-2-2.1s-1.3-.8-1.1-1.8c.2-1-.3-1.7-1.2-1.7-.8 0-1.8-.9-2.1-2-.3-1.1-1.3-1.9-2.2-1.9-.9.1-1.6-.1-1.5-.5.3-2.5-.4-5.1-1.2-4.6-.6.4-.7 1.1-.4 1.7.4.7.2.8-.5.4-.6-.4-.9-1.1-.7-1.4.2-.4-.2-1.8-1.1-3.2-1-1.8-1.3-2-.9-.5.6 1.9.6 2-.9.1-.8-1-1.2-2.2-1-2.7.3-.4 0-1.1-.6-1.5-.8-.4-.9-.3-.5.4 1 1.7-.3 1.5-2.1-.3-.8-.8-1.9-1.3-2.4-1-.5.4-.9-.5-.9-1.9s-.4-2.8-1-3.1c-.6-.4-.7.1-.3 1.1.4 1.2.3 1.5-.5 1-.7-.4-1.2-1.4-1.2-2.2 0-.8-.4-1.2-1-.9-.5.3-1 .1-1-.5s-.5-.8-1.2-.4c-.7.5-.8.3-.4-.5.5-.8 0-1.4-1.3-1.8-1.2-.3-2.1-1.1-2.1-1.7 0-.6-1-1.2-2.1-1.3-1.2-.1-2.7-.7-3.3-1.3-.8-.8-.6-.9.9-.5 1.4.4 1.2.2-.5-.8-1.4-.9-2.8-1.3-3.2-1.1-.3.2-.9-.5-1.3-1.6-.4-1.3-1.5-2-3-2-1.3 0-2.7-.5-3.1-1.2-.4-.6-.3-.8.4-.4.6.3 1.4.1 1.8-.5.4-.7.3-.9-.3-.6-.6.4-1.9 0-2.9-.8s-1.4-1.5-.9-1.5c.6 0 1-3.4 1-8 0-4.7-.4-8-1-8-.7 0-.7-.3 0-.8.6-.4 1-3.9 1-7.7 0-3.9-.4-7.3-1-7.7-.6-.5-.6-.8.2-.8 1.3 0 .5-4.1-1.1-5.2-.7-.5-.4-.8.6-.8 1.3 0 1.6-.5.9-2.1-.4-1.2-.4-4.1-.1-6.5.4-2.6.2-4.8-.4-5.4-.6-.6-.6-1 0-1 .5 0 .9-1.1.9-2.5s-.4-2.5-.8-2.5c-.5 0-.5-.5-.1-1.1.3-.6 0-1.5-.7-2-1.1-.7-1-.9.3-.9 1.4 0 1.6-.4.8-2.4-.5-1.3-.6-2.6-.4-2.9.5-.5.7-7.1.5-13.3-.1-1.1-.8-2.1-1.6-2.1-1.8 0-2 1.3-.2 2 .6.3 0 .6-1.4.6-1.8.1-2.8.8-3.2 2.1-.3 1.1-1.1 1.9-1.8 1.8-.7-.2-1.3.4-1.4 1.2-.1.8-.6 1.4-1.2 1.3-.7-.2-1.5.7-1.9 2-.5 1.2-.8 51.8-.9 112.4 0 60.6-.3 110.4-.6 110.8-.4.3-.6-1-.4-2.9.1-2-.1-3.6-.5-3.6s-.7 2.2-.6 5c0 2.7.4 5 .9 5 .4 0 .7-.7.7-1.5 0-.9.6-1.5 1.3-1.4 2.8.3 3.9-.2 3.3-1.6-.3-.8-.2-1.4.2-1.4 2 .3 3-.3 3.5-2.2.3-1.2 1-1.8 1.6-1.4.7.3 1.1-.2 1.1-1.4 0-1.5.6-2.1 2.1-2.1 1.8 0 1.9-.2.9-1.5-.7-.8-.9-1.5-.4-1.5s.9-1.1.9-2.5-.4-2.5-.8-2.5c-.5 0-.5-.5-.1-1.1.3-.6 0-1.5-.7-2-1.1-.7-1-.9.3-.9 1.4 0 1.6-.4.8-2.4-.5-1.3-.6-2.6-.4-2.9 1-1 .9-11.7-.1-11.7-.7 0-.7-.3 0-.8.6-.4 1-3.9 1-7.7 0-3.9-.4-7.3-1-7.7-.6-.5-.6-.8.2-.8 1.3 0 .5-4.1-1.1-5.2-.7-.5-.4-.8.6-.8 1.3 0 1.6-.5.9-2.1-.4-1.2-.4-4.1-.1-6.5.4-2.6.2-4.8-.4-5.4-.6-.6-.6-1 0-1 .5 0 .9-1.1.9-2.5s-.4-2.5-.8-2.5c-.5 0-.5-.5-.1-1.1.3-.6 0-1.5-.7-2-1.1-.7-1-.9.3-.9 1.4 0 1.6-.4.8-2.4-.5-1.3-.6-2.6-.4-2.9 1-1 .9-11.7-.1-11.7-.7 0-.7-.3 0-.8 1.5-1.1 1.3-7.3-.2-6.8-.7.3-1.5.1-1.8-.5-.4-.5-.3-.9.2-.8 2.3.4 3.1-.3 2.6-2.2-.5-1.8-.2-2 2.8-1.7 2.2.2 3.3.8 3.1 1.6-.1.8.7 1.6 1.8 1.9 1.1.3 2 1.2 2 1.9 0 .8.7 1.4 1.5 1.4.9 0 1.8.7 2.1 1.5.4.8 1.2 1.5 2 1.5s1.3.3 1.3.7c-.3 2.1.2 3.3 1.6 3.3.8 0 1.5.9 1.5 2 0 1.4.5 1.8 1.8 1.3 1.5-.6 1.5-.5.3 1s-1.2 1.7.3 1.1c1.5-.6 2.1.4 1.7 3.1-.1.5.6.1 1.5-1 1-1.2 1.5-1.4 1.2-.5-.3.8-.1 2.6.4 4 .7 2 1.1 2.2 1.8 1 .7-1.1 1-.8 1 1.4 0 2.1.4 2.7 1.5 2.3 1-.5 1.6.4 2.1 2.8.3 2 1.2 3.5 2 3.5s1.4.9 1.4 2.1c0 1.5.5 1.9 1.5 1.5 1.4-.5 2 1.4 1.6 5-.1.7.8 1.4 1.9 1.7 1.3.3 1.8 1.1 1.4 2-.3 1 .1 1.7 1.3 1.9 1 .2 1.8 1 1.9 1.8.1.8.2 3 .2 4.7.1 2.2.7 3.3 1.7 3.3 1.1 0 1.5 1.1 1.5 3.6 0 1.9.4 3.3.9 2.9.5-.3 1.2-.1 1.6.5.3.5.1 1-.4 1-.6 0-1.1.4-1.1 1 0 .5.6.7 1.4.4.8-.3 1.3.2 1.3 1.3 0 5.1.3 6.4 1.6 5.7 1-.6 1-.4 0 .7-1.7 1.8-1.7 3.4 0 2 1.1-.9 1.4-.5 1.2 1.7 0 1.5.2 4.6.5 6.9.5 2.8.3 4.3-.4 4.4-.6 0-.1.5 1.2 1.1 2 1 2.2 1.8 2.2 8.9 0 5.2.4 7.9 1.3 8.2 1 .4 1 .6 0 .6-.7.1-1.3.7-1.3 1.5s.6 1.7 1.3 1.9c1 .4 1 .6 0 .6-.7.1-1.3.8-1.3 1.7 0 .9.5 1.2 1.3.8.9-.6.9-.5.1.7-1.5 1.9-1.5 7.1 0 6.2.8-.5.7-.2-.1.8-.6.8-1.2 5.4-1.4 10.4-.2 7.1-.6 9.4-2.1 10.8-2 2-2.4 3.7-.8 3.7.7 0 .7.7.2 1.8-.4.9-.7 2.7-.6 4 .1 1.2-.6 2.8-1.5 3.5-.9.7-1.7 2.8-1.8 4.7-.2 5.8-.3 6.1-1.2 5.6-1.1-.7-2.1 1.7-2.1 5 0 1.8-.4 2.3-1.2 1.8-.8-.5-.7 0 .2 1.1 1.4 1.7 1.3 1.8-.2 1.2-1.4-.5-1.8-.1-1.9 2.1-.1 1.5 0 3.4.1 4.2.1 1.1-.3.9-1.5-.5-.9-1.1-1.4-1.4-1-.8.3.7.3 1.9-.2 2.5-.4.7-.8 1.7-.9 2.3 0 .5-.2 1.6-.2 2.3-.1.7-.7 1-1.2.7-1-.6-2.7 5-2.2 6.8.1.5-.2.6-.8.2-.6-.3-.7-1.2-.4-1.8.4-.7.3-.9-.1-.4-.5.4-1 1.8-1.2 3-.2 1.2-1.1 2.9-2.1 3.7-1 .8-1.9 1.9-2 2.5-.1.5-.8 1-1.4 1-.7 0-1.4.6-1.4 1.2-.1.7-.2 2-.3 2.8 0 .8-.7 1.5-1.5 1.5-.7 0-1.6.9-1.9 2.1-.3 1.2-1 1.8-1.6 1.4-.7-.3-1.1.2-1.1 1.4 0 1.4-.6 2.1-2 2.1-1.1 0-1.9.3-1.9.7.1.5.1 1.6 0 2.7-.1 1.6-.3 1.6-1.7.5-1.3-1.1-1.5-1.1-1.4.2.4 2.6 0 4-1 3.4-.5-.3-1.5-.3-2.2.1-.8.5-.6 1 .8 1.5 1.6.6 1.5.8-.8.8-1.7.1-3.2.9-3.8 2.1-.6 1.1-1.5 1.8-2.1 1.5-.5-.4-.9.3-.9 1.5s-.4 1.9-.9 1.6c-1.1-.7-3.3 1.8-2.4 2.7.3.4-.3.8-1.5.8-4.3.3-4.7.4-4.7 1.9 0 .9-.8 1.4-1.8 1.2-1.1-.2-1.7.4-1.7 1.6 0 1-.7 1.9-1.5 2-.8.1-2.2.3-3 .4-1.8.2-2 1.4-.2 2.2.8.4.7.5-.3.5-3.6-.3-5 .2-5 1.7 0 1-.6 1.4-1.5 1-.8-.3-1.5-.1-1.5.5s-.4.8-.9.5c-.4-.3-1.8.3-3 1.3-1.2 1.1-3.3 1.8-4.7 1.6-1.9-.2-2.2 0-1.3 1.1.6.8.8 1.5.3 1.5-.5.1-1.3.2-1.9.4-.5.1-2.2.3-3.7.3-1.6.1-2.8.8-2.8 1.5 0 .8-.6 1.4-1.2 1.4-5.5.4-10.9 1.1-11.4 1.5-.3.3.2.8 1.1 1.2.9.3 1.4.2 1.1-.3-.4-.5.3-.7 1.4-.4 3.5.9 1.4 1.5-6.7 1.8-4.3.2-8 .4-8.2.4-.2.1.1.7.7 1.4.8.9-.5 1.3-6.1 1.4-4 .2-9.1.4-11.4.6-2.4.2-4.3 0-4.3-.5s-.5-.6-1-.3c-1.7 1.1-1.1 2.4 1 2 1.1-.2 2-.1 2 .3 0 .9-19.6 1-20.4.2-.3-.3 2.9-.5 7-.5 4.1.1 7.7-.2 7.9-.5.3-.4-2.1-.6-5.3-.5-3.1.1-6.5-.2-7.4-.7-1-.5-1.9-.4-2.3.2-.4.6-1.1.8-1.6.4-.5-.3-1.7 0-2.6.8-1.4 1.1-1.6 1.1-.9-.1.7-1.1.1-1.3-2.8-.9-2 .2-3.6.2-3.6-.2 0-.3-2.2-.5-5-.5-4.6 0-6.2-.7-4.2-1.8.4-.2.2-.2-.5-.1-.6.2-1.4 0-1.6-.4-.2-.4-.2-.1-.1.6.2.6-.1 1.2-.6 1.2-.6 0-1-.6-1-1.3 0-.9-1.1-1.2-3.2-1.1-1.8.1-3.6-.3-4-.9-.6-.9-.8-.8-.8.1 0 .7-.5 1-1 .7-.6-.4-.7-1.2-.3-1.8.4-.7-.1-.6-1 .2-1.6 1.2-1.7 1.2-1-.5.6-1.7.5-1.8-1.2-.4-1.1.9-1.6 1-1.1.2.5-.9-.4-1.2-3.3-1.2-3 0-4.1-.4-4.1-1.5 0-.8-.9-1.6-2-1.6-3.9-.3-4.5-.5-4.3-1.7.2-.7-.5-1.2-1.5-1.3-.9 0-2.6-.3-3.7-.5-1.1-.3-2.5-.6-3.2-.6-.7-.1-1-.5-.7-1 .3-.5 1.1-.5 1.7-.2.7.4.8.3.4-.2-.9-1-1.4-1.1-5.4-1.3-2-.1-2.4-.4-1.5-1 1-.6.6-1.1-1.6-1.9-1.7-.6-3.3-.8-3.6-.5-.3.4-.6-.3-.6-1.4 0-1.6-.5-2-1.9-1.6-1 .3-2.2 0-2.5-.6-.4-.6-.2-1.1.5-1.1s.9-.3.6-.6c-.4-.4-1.3-.1-2.2.6-1.3 1.1-1.4 1-.9-.4.4-1.2 0-1.6-1.5-1.6-1.2 0-2.1-.6-2.1-1.5 0-.8-.9-1.5-2-1.5-1.3 0-1.8-.5-1.4-1.5.4-1 0-1.5-1.5-1.5-1.2 0-2.1-.6-2.1-1.4 0-.8-.4-1.8-1-2.1-.6-.3-.8.2-.5 1.2.3 1-.2.3-1-1.4-1.5-3.3-3.3-4.7-2.1-1.8.3.8.2 1.5-.3 1.5s-1.1-.9-1.4-2c-.4-1.4-1-1.8-2.4-1.4-1.6.6-1.6.5.2-1 1.7-1.5 1.7-1.7.3-1.2-1.2.3-1.8 0-1.8-1 0-.8-1.1-2-2.5-2.6-1.3-.6-2.7-1.9-3.1-3-.3-1-.9-1.6-1.4-1.3-.5.3-1.2 0-1.6-.6-.4-.7-.3-.9.4-.5.6.3 1.3.2 1.7-.4.3-.5-.1-1-1-1s-1.9-.9-2.2-2.1c-.3-1.2-1.1-1.8-1.9-1.5-.9.3-1.4-.2-1.4-1.4 0-1.1-.7-2-1.5-2-1 0-1.5-.7-1.3-1.8.2-1-.2-1.6-1.1-1.4-.9.2-1.1-.3-.7-1.4.4-1.2.2-1.5-.9-1-.8.3-1.4.2-1.4-.2.1-.4.1-1.8 0-3.1-.1-2-.3-2.2-1.7-1-1.4 1.1-1.6 1-1.2-1.1.2-1.8-.1-2.4-1.1-2.2-1.2.3-1.2 0-.2-1.2.7-.9.8-1.7.2-2-.5-.3-1.2 0-1.4.6-.3.7-.6.1-.6-1.3-.1-1.5-.7-2.9-1.5-3.2-.7-.3-1.7-2.6-2-5.1-.5-3.3-1.1-4.4-2.2-3.9-1.1.4-1.4-.4-1.4-3.6 0-2.3-.5-4.1-1.1-4.1-.5 0-.7.6-.3 1.2.5 1 .3 1-.7 0-1.2-1.1-1.2-1.4 0-2.1.8-.6.9-1 .2-1.2-.6-.2-1.2-1.9-1.4-3.7-.2-1.9-.9-3.7-1.6-4.1-.7-.5-1.3-2.2-1.3-3.9-.1-2-.5-2.9-1.2-2.5-.6.4-.5-.1.3-1 1-1.3 1.1-2 .2-3-.6-.8-.7-1.8-.3-2.2.4-.5.1-.5-.6-.1-.6.4-1.2.4-1.3-.1-.5-4.3-.8-8.2-1-16.1-.1-5-.6-9.2-.9-9.2-.4 0-.6 1.6-.5 3.5.1 1.9-.1 3.2-.4 2.9-.3-.3-.6-5.9-.6-12.4 0-9 .3-11.6 1.2-11.3 1 .4 1.3-1.3 1.5-6.3 0-3.8.1-7.6 0-8.3 0-.8.7-2.1 1.6-2.8.9-.7 1.3-1.3.8-1.3s-.3-.6.3-1.4c1-1.1.8-1.7-.6-2.5-1.7-1-1.7-1 0-1.1 1.1 0 1.5-.5 1.1-1.1-.3-.6 0-1.5.7-2 .9-.5 1-.9.2-.9s-.9-.9-.4-2.8c.5-1.5 1.3-2.6 1.8-2.5.6.1 1.1-1.7 1.2-4 .3-6.3.4-6.7 1.3-6.1.5.3.6 1 .3 1.5-.4.5-.1.9.5.9s1-.6.9-1.3c-.4-3.3.3-5.6 1.9-6 1.6-.4 1.6-.5-.1-.6-1 0-1.5-.6-1.2-1.1.4-.6 1-.8 1.5-.5.5.3 1.2-.9 1.5-2.7.4-1.8 1.3-3.6 1.9-4 1.1-.7 1.3-1.2 1.5-4.9 0-1.1.6-1.7 1.1-1.4.6.3 1.3-.2 1.7-1.2.4-1 1.4-2.4 2.2-3.1.9-.8 1.1-1.1.4-.8-.6.4-1.5.2-1.8-.4-.4-.6-.1-.9.6-.8.7.2 1.8-.7 2.4-2 .5-1.2 1.6-2 2.3-1.7.9.3 1.1-.1.7-1.5-.4-1.2-.2-2 .5-2 .6 0 .9-.4.5-.9-.3-.5 0-1.3.6-1.7.7-.4.9-.3.5.4-.3.6-.2 1.3.3 1.6.5.4 1.1-.8 1.3-2.6.2-2.6.7-3.2 2.2-3 1.4.3 1.7-.1 1.2-1.3-.4-1.2 0-1.8 1.4-2.2 1.1-.3 2-1.2 2-1.9 0-.8.7-1.4 1.5-1.4s1.5-.9 1.5-2c0-1.4.6-2 1.8-1.8 1.1.2 1.6-.3 1.4-1.5-.2-1.2.4-1.7 1.8-1.7 1.2 0 1.9-.4 1.6-.9-.7-1.1 1.8-3.3 2.7-2.4.4.3.7-.1.7-1 0-1.5 1.1-2.1 3.2-1.8.4 0 .5-.9.3-2.1-.3-1.1-.2-1.8.2-1.5.9.9 4.4-1.3 3.8-2.3-.3-.6.1-.7 1-.3 1.3.5 1.4.7.3 1.4-1 .7-1 .9 0 .9.9 0 1.2 11.4 1.2 53.4 0 39.4.3 53.7 1.2 54.2.7.4.8.3.4-.4s-.2-1.2.3-1.2c.6 0 1.1.7 1.1 1.5 0 .9 1 2 2.3 2.5 1.2.5 1.8.9 1.2 1-.5 0 .1 1 1.5 2.1s1.9 1.7 1.1 1.3c-.9-.4-1.2-.3-.8.3.4.6 1.6 1.3 2.7 1.6 1.5.4 2 0 2.1-1.6.1-1.2.1-2.6 0-3.1s.6-.6 1.6-.2c1.6.5 1.6.4.3-.6-1.2-1-1.6-3.6-1.6-11.5 0-6.9.3-10 1-9.6.6.4.4-.2-.4-1.2-1.4-1.7-1.3-1.8.5-1.2 1.7.6 1.8.5.5-.5-1.2-1-1.6-3.6-1.6-11.5 0-6.9.3-10 1-9.6.6.4.4-.2-.4-1.2-1.4-1.7-1.3-1.8.5-1.2 1.7.6 1.8.5.5-.5-1.2-1-1.6-3.6-1.6-11.5 0-6.9.3-10 1-9.6.6.4.4-.2-.4-1.2-1.4-1.7-1.3-1.8.5-1.2 1.7.6 1.8.5.5-.5-1.2-1-1.6-3.6-1.6-11.5 0-6.9.3-10 1-9.6.6.4.4-.2-.4-1.2-1.4-1.7-1.3-1.8.5-1.2 1.7.6 1.8.5.5-.5-.8-.7-1.5-2.8-1.6-4.6 0-2.6.3-3.2 1.5-2.7 1.4.4 1.4.4.1-.7-1.2-1-1.6-3.6-1.6-11.5 0-6.9.3-10 1-9.6.6.4.4-.2-.4-1.2-1.4-1.7-1.3-1.8.5-1.2 1.7.6 1.8.5.5-.5-1.2-1-1.6-3.6-1.6-11.5 0-6.9.3-10 1-9.6.6.4.4-.2-.4-1.2-1.4-1.7-1.3-1.8.5-1.2 1.7.6 1.8.5.5-.5-1.2-1-1.6-3.6-1.6-11.5 0-6.9.3-10 1-9.6.6.4.4-.2-.4-1.2-1.4-1.7-1.3-1.8.5-1.2 1.7.6 1.8.5.5-.5-1.2-1-1.6-3.6-1.6-11.5 0-6.9.3-10 1-9.6.6.4.4-.2-.4-1.2-1.4-1.7-1.3-1.8.5-1.2 1.7.6 1.8.5.4-.5-1.1-1-1.5-3.1-1.4-8.8.1-9.7-.3-12-2.1-11.3-.9.3-1.4-.2-1.4-1.6 0-1.2-.3-2-.7-2-2.3.4-3.5-.3-2.9-1.6.4-1-.1-1.5-1.4-1.5-1.1 0-2-.7-2-1.5s-.7-1.5-1.5-1.5c-1.3 0-1.5 5.4-1.5 43zm-46 84.4c0 .3-.4.8-1 1.1-.5.3-1 .1-1-.4 0-.6.5-1.1 1-1.1.6 0 1 .2 1 .4zM364 154c0 .5-.2 1-.4 1-.3 0-.8-.5-1.1-1-.3-.6-.1-1 .4-1 .6 0 1.1.4 1.1 1zm-5.7 55c.3 1.1.2 2.2-.2 2.4-.4.3-.8-.6-.9-2-.2-2.9.4-3.1 1.1-.4zm.1 58.6c.3.8.2 1.2-.4.9-.6-.3-1-1-1-1.6 0-1.4.7-1.1 1.4.7zM315 378.4c0 .3-.4.8-1 1.1-.5.3-1 .1-1-.4 0-.6.5-1.1 1-1.1.6 0 1 .2 1 .4zM196.5 390c.3.5.1 1-.4 1-.6 0-1.1-.5-1.1-1 0-.6.2-1 .4-1 .3 0 .8.4 1.1 1zm-13 22c.3.5.1 1-.4 1-.6 0-1.1-.5-1.1-1 0-.6.2-1 .4-1 .3 0 .8.4 1.1 1zm53.5.2c0 .4-.4.8-.9.8-.6 0-1.2-.4-1.5-.8-.3-.5.1-.9.9-.9s1.5.4 1.5.9z"/><path d="M283.3 15c-.1 1.1.2 2 .7 2 .4 0 .7-.7.6-1.5-.3-2.3-1.2-2.6-1.3-.5zM283 19.5c0 .8.4 1.5.8 1.5.5 0 .9-.7.9-1.5s-.4-1.5-.9-1.5c-.4 0-.8.7-.8 1.5zM283.7 24.7c-1 .9-.9 2.3.1 2.3.5 0 .9-.7.9-1.5 0-1.7-.1-1.8-1-.8zM283.3 31.5c0 1.9.3 3.5.7 3.5.3 0 .6-1.6.6-3.5s-.3-3.5-.6-3.5c-.4 0-.7 1.6-.7 3.5zM283.3 38.5c0 1.4.3 2.5.6 2.5.4 0 .7-1.1.7-2.5s-.3-2.5-.7-2.5c-.3 0-.6 1.1-.6 2.5zM254.3 42.7c-.7.3-1.3 1.1-1.3 1.9 0 .8-.6 1.4-1.4 1.4-.8 0-1.8.5-2.2 1.2-.5.7-.3.8.6.3.9-.5 1.1-.4.6.3-.4.7-1.6 1.2-2.7 1.2-1.2 0-1.9.7-1.9 2 0 1.1-.6 1.9-1.2 1.7-1-.1-1.4 23-1.6 112.4-.2 99.5 0 112.8 1.3 113.3 1 .4 1.5-.1 1.5-1.4 0-1.8 1-2.5 3.3-2.1.4 0 .7-.8.7-2s.4-1.7 1.1-1.4c.6.4 1.3-.2 1.6-1.4.3-1.2 1.2-2 2.1-1.9 1.3.3 1.6-.7 1.6-4.9 0-3 .3-5 .9-4.6.5.3.5-.2 0-1.3-.6-1.1-.9-45.7-.9-108.2.1-58.5-.1-106.5-.4-106.7-.3-.1-1.1 0-1.7.2zM158.4 44.2c-.4.6-.3.8.4.4s1 1.2.9 5.1c-.2 4.2-.6 5.7-1.5 5.5-.8-.1-1.1.2-.7.8.3.6 1 .8 1.5.5.5-.3.8 2.1.7 5.2-.2 4.2-.6 5.7-1.5 5.5-.8-.1-1.1.2-.7.8.3.6 1 .8 1.5.5.5-.3.8 2.1.7 5.2-.2 4.2-.6 5.7-1.5 5.5-.8-.1-1.1.2-.7.8.3.6 1 .8 1.4.6.4-.3.8 1.2.9 3.4.2 3.1-.1 3.8-1.3 3.4-.8-.4-1.5-.1-1.5.5s.6 1 1.3.9c1.7-.4 2 21.1.4 23.1-1 1.2-.9 1.3.1.7 1.1-.6 1.3.7 1.1 6.5-.1 4.1-.7 8-1.3 8.8-.8 1.2-.8 1.3.2.7 1.1-.6 1.3.7 1.1 6.5-.1 4.1-.7 8-1.3 8.8-.8 1.2-.8 1.3.2.7 1.1-.6 1.3.7 1.1 6.5-.1 4.1-.7 8-1.3 8.8-.8 1.1-.8 1.3.1.8.8-.5 1.1.8 1 5-.2 4.2-.6 5.7-1.5 5.5-.8-.1-1.1.2-.7.8.3.6 1 .8 1.5.5.5-.3.8 2.1.7 5.2-.2 4.2-.6 5.7-1.5 5.5-.8-.1-1.1.2-.7.8.3.6 1 .8 1.5.5.5-.3.8 2.1.7 5.2-.2 4.2-.6 5.7-1.5 5.5-.8-.1-1.1.2-.7.8.3.6 1 .8 1.5.5.5-.3.8 2.1.7 5.2-.2 4.2-.6 5.7-1.5 5.5-.8-.1-1.1.2-.7.8.3.6 1 .8 1.4.6.4-.3.8 1.2.9 3.4.2 3.1-.1 3.8-1.3 3.4-.8-.4-1.5-.1-1.5.5s.6 1 1.3.9c1.7-.4 2 21.1.4 23.1-.9 1.2-.9 1.3.1.7.9-.6 1.2 1.9 1.1 11.6-.1 16.1-.1 17 1 16.4.5-.3 1.7.5 2.7 1.9 1 1.3 2.2 2.1 2.7 1.8.6-.4.7-.1.3.6-.5.8 0 1.4 1.3 1.8 1.1.3 1.9.8 1.7 1.2-.3.4-.1 1.3.4 2.1.6 1 1.2 1.1 2.2.3 1.1-.9 1.3-20.9 1.2-111.5-.1-60.6-.2-111.3-.3-112.5-.1-1.5-.6-2.1-1.5-1.7-.8.3-1.6-.3-1.9-1.5-.3-1.2-1.3-2.1-2.2-2.1-1.1 0-1.5-.5-1.1-1.5.4-1-.1-1.5-1.4-1.5-1.1 0-2-.7-2-1.5 0-1.8-3.6-2-4.6-.3zM283 47.5c0 .8.4 1.5.8 1.5.5 0 .9-.7.9-1.5s-.4-1.5-.9-1.5c-.4 0-.8.7-.8 1.5zM283 51.5c0 .8.4 1.5.8 1.5.5 0 .9-.7.9-1.5s-.4-1.5-.9-1.5c-.4 0-.8.7-.8 1.5zM283.7 56.7c-1 .9-.9 2.3.1 2.3.5 0 .9-.7.9-1.5 0-1.7-.1-1.8-1-.8zM283.3 63.5c0 1.9.3 3.5.7 3.5.3 0 .6-1.6.6-3.5s-.3-3.5-.6-3.5c-.4 0-.7 1.6-.7 3.5zM283.3 70.5c0 1.4.3 2.5.6 2.5.4 0 .7-1.1.7-2.5s-.3-2.5-.7-2.5c-.3 0-.6 1.1-.6 2.5zM283 79.5c0 .8.4 1.5.8 1.5.5 0 .9-.7.9-1.5s-.4-1.5-.9-1.5c-.4 0-.8.7-.8 1.5zM283 83.5c0 .8.4 1.5.8 1.5.5 0 .9-.7.9-1.5s-.4-1.5-.9-1.5c-.4 0-.8.7-.8 1.5zM200.3 195.2v112.3l2.4 2.4c1.5 1.6 2.3 2 2.3 1 .1-.8.8-.1 1.6 1.6.8 1.6 1.2 2.3 1 1.4-.2-.9.2-1.6 1-1.7.8-.1 2.1-.3 2.9-.4.9-.1 1.5-1.1 1.5-2.4 0-1.8.4-2.2 1.7-1.7 1.1.4 1.4.3.9-.5-.4-.7-.2-1.2.6-1.2 1 0 1-.2-.1-.9-.9-.6-1-1-.2-1.6.9-.5.9-1 .1-2-.8-.9-.8-1.5 0-2 .6-.3.8-1.1.5-1.6-1.2-1.9-1.3-4.9-.2-4.9.8 0 .8-.3 0-1.1s-.9-1.9-.2-3.7c.9-2.3.8-2.4-.7-1.1-1.6 1.3-1.6 1.2-.5-.9.6-1.2.8-2.2.4-2.2s-.1-.5.7-1c1.1-.7 1.1-1 .2-1-.7 0-1-.5-.7-1.1 1.1-1.7 1.3-5.9.4-6.5-.5-.3-.4-1.4.2-2.6.8-1.5.8-1.9-.1-1.3-1.4.9-1-2.7.5-3.7.6-.5.5-.8-.3-.8-.7 0-1-.5-.7-1.1 1.1-1.7 1.3-5.9.4-6.5-.5-.3-.5-1.4.1-2.4.7-1.3.7-2.1 0-2.5-.8-.5-.8-1.1-.1-1.9.6-.7.8-1.5.6-1.8-1.1-1.1-1.4-4.8-.4-4.8.6 0 .7-.6.2-1.3-.4-.6-.6-2-.4-3.1.2-1.2-.1-1.6-1-1.1-.7.5-1 .4-.5-.3.3-.6.2-1.3-.4-1.7-.5-.3-1-1.2-1-1.8 0-.8.3-.8.9.2.6.9 1.1 1 1.5.2.4-.6.4-1.1-.1-1.1-.4 0-.1-.5.7-1.1 1.3-.8 1.3-.9-.2-.7-.9.2-1.7-.2-1.7-.7-.1-.6.3-1 .8-1s1.3-.4 1.8-.9c.4-.5.3-.6-.4-.2-.8.4-1.1-.1-1-1.4.1-1.1.6-2 1.2-2 .5-.1.1-.6-1-1.3-2.5-1.5-3.4-5.3-1.1-4.4.8.3 1.8.2 2.1-.3.4-.6.2-1-.4-1-.5 0-.8-1.2-.5-2.8.3-1.9.2-2.3-.5-1.2-.5.8-.8 1.7-.5 2.1.2.4 0 1-.5 1.4-1.8 1-.2-4 1.6-5.3 1.7-1.3 1.7-1.3-.1-1-1 .2-2.1-.4-2.3-1.2-.4-1.2-.3-1.2.5-.1.7.9 1.2 1 1.6.2.4-.6.4-1.1-.1-1.1-.4 0-.1-.5.7-1 1.2-.8 1.2-1 .1-1-1 0-1.1-.3-.2-1.4.9-1 .9-1.6.1-2.1s-.8-1.1-.1-1.9c.6-.7.8-1.5.6-1.8-1.2-1.1-1.3-4.8-.2-4.8.8 0 .8-.3 0-1.1s-.8-2-.3-3.5c.6-1.5.5-2.6-.1-3-.7-.4-.7-1 0-1.8.6-.7.8-1.5.6-1.8-1.1-1.1-1.4-4.8-.4-4.8.6 0 .7-.6.2-1.3-.4-.6-.6-2-.4-3.1.2-1.2-.1-1.6-1-1.1-.7.5-1 .4-.5-.3.3-.6.2-1.3-.4-1.7-.5-.3-1-1.2-1-1.8 0-.8.3-.8.9.2.6.9 1.1 1 1.5.2.4-.6.4-1.1-.1-1.1-.4 0-.1-.5.7-1.1 1.3-.8 1.3-.9-.2-.7-.9.2-1.7-.2-1.7-.7-.1-.6.3-1 .8-1s1.3-.4 1.8-.9c.4-.5.3-.6-.4-.2-.8.4-1.1-.1-1-1.4.1-1.1.6-2 1.2-2 .5-.1.1-.6-1-1.3-2.5-1.5-3.4-5.3-1.1-4.4.8.3 1.8.2 2.1-.3.4-.6.2-1-.4-1-.5 0-.8-1.2-.5-2.8.3-1.9.2-2.3-.5-1.2-.5.8-.8 1.7-.5 2.1.2.4 0 1-.5 1.4-1.8 1-.2-4 1.6-5.3 1.7-1.3 1.7-1.3-.1-1-1 .2-2.1-.4-2.3-1.2-.4-1.2-.3-1.2.5-.1.7.9 1.2 1 1.6.2.4-.6.4-1.1-.1-1.1-.4 0-.1-.5.7-1 1.2-.8 1.2-1 .1-1-1 0-1.1-.3-.2-1.4.9-1 .9-1.6.1-2.1s-.8-1.1-.1-1.9c.6-.7.8-1.5.6-1.8-1.2-1.1-1.3-4.8-.2-4.8.8 0 .8-.3 0-1.1s-.8-2-.3-3.5c.6-1.5.5-2.6-.1-3-.7-.4-.7-1 0-1.8.6-.7.8-1.5.6-1.8-1.1-1.1-1.4-4.8-.4-4.8.6 0 .7-.6.2-1.3-.4-.6-.6-2-.4-3.1.2-1.2-.1-1.6-1-1.1-.7.5-1 .4-.5-.3.3-.6.2-1.3-.4-1.7-.5-.3-1-1.2-1-1.8 0-.8.3-.8.9.2.6.9 1.1 1 1.5.2.4-.6.4-1.1-.1-1.1-.4 0-.1-.5.7-1.1 1.3-.9 1.3-1 0-.7-.8.2-1.6-.2-1.7-.7-.2-.6.1-1 .6-1s1.3-.4 1.8-.9c.4-.5.3-.6-.4-.2-.8.4-1.1-.1-1-1.4.1-1.1.6-2 1.2-2 .5-.1.1-.6-1-1.3-2.5-1.5-3.4-5.3-1.1-4.4.8.3 1.8.2 2.1-.3.4-.6.2-1-.3-1-1 0-.9-5 .2-6.8.4-.7.6-1.2.4-1.3-2.6-.6-3.7-.5-3.5.4.1.6-1.1 1.4-2.8 1.8-1.6.4-2.4.7-1.7.8.6 0 1.2.5 1.2 1.1 0 1.6-2.4.7-3.2-1.2-.4-1.1-1.5-1.5-3-1.2-1.3.2-1.7.2-1-.2 1.5-.7.6-2.4-1.3-2.4-1.1 0-1.3 18.6-1.2 112.2zM214.7 89c-.2 1.1-.6 2.2-.9 2.6-.4.3-.5-.2-.3-1.3.2-1 .4-2.1.4-2.6.1-.4.3-.7.6-.7s.4.9.2 2zm-.1 10.5c-.1.8-.5 1.7-.8 2.1-.5.4-.4-1.6.1-3.4.3-.9.9.1.7 1.3zm0 16.4c-.2 4.2-1.1 4.6-1.2.5 0-1.9.2-3.4.6-3.4.4 0 .7 1.3.6 2.9zm.9 6c.3.5.1 1.3-.5 1.6-.8.5-.8 1.1 0 2 .8 1 .8 1.5 0 2-.6.4-1.4.4-1.7.1-.4-.3-.1-.6.6-.6s.9-.5.4-1.3c-1.2-1.9-1.4-4.7-.4-4.7.6 0 1.2.4 1.6.9zm-.9 10c-.2 4.2-1.1 4.6-1.2.5 0-1.9.2-3.4.6-3.4.4 0 .7 1.3.6 2.9zm.9 6c.3.5.1 1.3-.5 1.6-.8.5-.8 1.1 0 2 .8.9.8 1.5 0 2-.6.3-.7 1.2-.4 1.8.4.7.1.6-.7-.2-1.1-1-1.1-1.5-.1-1.8.6-.3.9-1 .5-1.6-1.2-1.9-1.4-4.7-.4-4.7.6 0 1.2.4 1.6.9zm-.9 25.6c-.1.8-.5 1.7-.8 2.1-.5.4-.4-1.6.1-3.4.3-.9.9.1.7 1.3zm0 16.4c-.2 4.2-1.1 4.6-1.2.5 0-1.9.2-3.4.6-3.4.4 0 .7 1.3.6 2.9zm.9 6c.3.5.1 1.3-.5 1.6-.8.5-.8 1.1 0 2 .8 1 .8 1.5 0 2-.6.4-1.4.4-1.7.1-.4-.3-.1-.6.6-.6s.9-.5.4-1.3c-1.2-1.9-1.4-4.7-.4-4.7.6 0 1.2.4 1.6.9zm-.9 10c-.2 4.2-1.1 4.6-1.2.5 0-1.9.2-3.4.6-3.4.4 0 .7 1.3.6 2.9zm.9 6c.3.5.1 1.3-.5 1.6-.8.5-.8 1.1 0 2 .8.9.8 1.5 0 2-.6.3-.7 1.2-.4 1.8.4.7.1.6-.7-.2-1.1-1-1.1-1.5-.1-1.8.6-.3.9-1 .5-1.6-1.2-1.9-1.4-4.7-.4-4.7.6 0 1.2.4 1.6.9zm-.9 25.6c-.1.8-.5 1.7-.8 2.1-.5.4-.4-1.6.1-3.4.3-.9.9.1.7 1.3zm0 16.4c-.2 4.2-1.1 4.6-1.2.5 0-1.9.2-3.4.6-3.4.4 0 .7 1.3.6 2.9zm.9 6c.3.5.1 1.3-.5 1.6-.7.5-.8 1.1-.1 1.9.6.7.6 1.7.1 2.6-.5.8-.5 1.9 0 2.5.6.8.5 1.2-.3 1.2-.7 0-1.3-1.1-1.3-2.4 0-1.3.4-2.3.9-2.3.4 0 .5-.6 0-1.3-1.2-1.9-1.4-4.7-.4-4.7.6 0 1.2.4 1.6.9zm-.2 11.7c.7.7-.2 3.4-1.2 3.4-.4 0-.7-.9-.8-2-.2-1.9.8-2.6 2-1.4zm-.7 5.9c-.1.8-.5 1.7-.8 2.1-.5.4-.4-1.6.1-3.4.3-.9.9.1.7 1.3zm.1 4.9c-.3.7-.1 1.8.4 2.3.6.6.4 1-.5 1-.7 0-1.2-.7-1.1-1.6.2-.9.4-1.9.4-2.4.1-.4.4-.7.7-.7.3 0 .4.6.1 1.4zm.6 5.2c.7.7-.2 3.4-1.2 3.4-.4 0-.7-.9-.8-2-.2-1.9.8-2.6 2-1.4zm-.7 5.9c-.1.8-.5 1.7-.8 2.1-.5.4-.4-1.6.1-3.4.3-.9.9.1.7 1.3zm0 8.4c-.2 4.2-1.1 4.6-1.2.5 0-1.9.2-3.4.6-3.4.4 0 .7 1.3.6 2.9zm.9 6c.3.5.1 1.3-.5 1.6-.8.5-.8 1.1 0 2 .8.9.8 1.5 0 2-.6.3-.7 1.2-.4 1.8.4.7.1.6-.7-.2-1.1-1-1.1-1.5-.1-1.8.6-.3.9-1 .5-1.6-1.2-1.9-1.4-4.7-.4-4.7.6 0 1.2.4 1.6.9zM283.7 88.7c-1 .9-.9 2.3.1 2.3.5 0 .9-.7.9-1.5 0-1.7-.1-1.8-1-.8zM283.3 95.5c0 1.9.3 3.5.7 3.5.3 0 .6-1.6.6-3.5s-.3-3.5-.6-3.5c-.4 0-.7 1.6-.7 3.5z"/><path d="M157.5 94c-.3.5-.1 1 .4 1 .6 0 1.1-.5 1.1-1 0-.6-.2-1-.4-1-.3 0-.8.4-1.1 1zM214.7 95.5c.3.8.9 1.2 1.4.9 1.2-.7 1.1-1.1-.5-1.7-1-.4-1.3-.1-.9.8zM157.4 99.1c-.3.6-.2 1.5.3 2s.9.1.9-1.1c0-2.3-.2-2.4-1.2-.9zM283.3 102.5c0 1.4.3 2.5.6 2.5.4 0 .7-1.1.7-2.5s-.3-2.5-.7-2.5c-.3 0-.6 1.1-.6 2.5zM158.1 104.6c0 1.1.3 1.4.6.6.3-.7.2-1.6-.1-1.9-.3-.4-.6.2-.5 1.3zM283 111.5c0 .8.4 1.5.8 1.5.5 0 .9-.7.9-1.5s-.4-1.5-.9-1.5c-.4 0-.8.7-.8 1.5zM157.4 115.1c-.3.6-.2 1.5.3 2s.9.1.9-1.1c0-2.3-.2-2.4-1.2-.9zM283 115.5c0 .8.4 1.5.8 1.5.5 0 .9-.7.9-1.5s-.4-1.5-.9-1.5c-.4 0-.8.7-.8 1.5zM158.1 120.6c0 1.1.3 1.4.6.6.3-.7.2-1.6-.1-1.9-.3-.4-.6.2-.5 1.3zM283.7 120.7c-1 .9-.9 2.3.1 2.3.5 0 .9-.7.9-1.5 0-1.7-.1-1.8-1-.8zM283.3 127.5c0 1.9.3 3.5.7 3.5.3 0 .6-1.6.6-3.5s-.3-3.5-.6-3.5c-.4 0-.7 1.6-.7 3.5zM157.4 131.1c-.3.6-.2 1.5.3 2s.9.1.9-1.1c0-2.3-.2-2.4-1.2-.9zM283.3 134.5c0 1.4.3 2.5.6 2.5.4 0 .7-1.1.7-2.5s-.3-2.5-.7-2.5c-.3 0-.6 1.1-.6 2.5zM61 136c-.9.6-1 1-.3 1 .6 0 1.5-.5 1.8-1 .8-1.2.4-1.2-1.5 0zM158.1 136.6c0 1.1.3 1.4.6.6.3-.7.2-1.6-.1-1.9-.3-.4-.6.2-.5 1.3zM283 143.5c0 .8.4 1.5.8 1.5.5 0 .9-.7.9-1.5s-.4-1.5-.9-1.5c-.4 0-.8.7-.8 1.5zM88 144c0 .5.5 1 1.1 1 .5 0 .7-.5.4-1-.3-.6-.8-1-1.1-1-.2 0-.4.4-.4 1zM157.4 147.1c-.3.6-.2 1.5.3 2s.9.1.9-1.1c0-2.3-.2-2.4-1.2-.9zM283 147.5c0 .8.4 1.5.8 1.5.5 0 .9-.7.9-1.5s-.4-1.5-.9-1.5c-.4 0-.8.7-.8 1.5zM158.1 152.6c0 1.1.3 1.4.6.6.3-.7.2-1.6-.1-1.9-.3-.4-.6.2-.5 1.3zM283.7 152.7c-1 .9-.9 2.3.1 2.3.5 0 .9-.7.9-1.5 0-1.7-.1-1.8-1-.8zM283.3 159.5c0 1.9.3 3.5.7 3.5.3 0 .6-1.6.6-3.5s-.3-3.5-.6-3.5c-.4 0-.7 1.6-.7 3.5zM214.7 159.5c.3.8.9 1.2 1.4.9 1.2-.7 1.1-1.1-.5-1.7-1-.4-1.3-.1-.9.8zM283.3 166.5c0 1.4.3 2.5.6 2.5.4 0 .7-1.1.7-2.5s-.3-2.5-.7-2.5c-.3 0-.6 1.1-.6 2.5zM343 171.1c0 .5.5.7 1 .4.6-.3 1-.8 1-1.1 0-.2-.4-.4-1-.4-.5 0-1 .5-1 1.1zM283 175.5c0 .8.4 1.5.8 1.5.5 0 .9-.7.9-1.5s-.4-1.5-.9-1.5c-.4 0-.8.7-.8 1.5zM283 179.5c0 .8.4 1.5.8 1.5.5 0 .9-.7.9-1.5s-.4-1.5-.9-1.5c-.4 0-.8.7-.8 1.5zM377 182.5c0 .5.5 1.7 1 2.5s1 1 1 .5c0-.6-.5-1.7-1-2.5s-1-1.1-1-.5zM283.7 184.7c-1 .9-.9 2.3.1 2.3.5 0 .9-.7.9-1.5 0-1.7-.1-1.8-1-.8zM283.3 191.5c0 1.9.3 3.5.7 3.5.3 0 .6-1.6.6-3.5s-.3-3.5-.6-3.5c-.4 0-.7 1.6-.7 3.5zM283.3 198.5c0 1.4.3 2.5.6 2.5.4 0 .7-1.1.7-2.5s-.3-2.5-.7-2.5c-.3 0-.6 1.1-.6 2.5zM283 207.5c0 .8.4 1.5.8 1.5.5 0 .9-.7.9-1.5s-.4-1.5-.9-1.5c-.4 0-.8.7-.8 1.5zM283 211.5c0 .8.4 1.5.8 1.5.5 0 .9-.7.9-1.5s-.4-1.5-.9-1.5c-.4 0-.8.7-.8 1.5zM383.6 212.8c-.2.4-.1 1.4.4 2.2.7 1.1.9.9.7-.8-.1-2.4-.3-2.6-1.1-1.4zM283.7 216.7c-1 .9-.9 2.3.1 2.3.5 0 .9-.7.9-1.5 0-1.7-.1-1.8-1-.8zM283.3 223.5c0 1.9.3 3.5.7 3.5.3 0 .6-1.6.6-3.5s-.3-3.5-.6-3.5c-.4 0-.7 1.6-.7 3.5zM157.5 222c-.3.5-.1 1 .4 1 .6 0 1.1-.5 1.1-1 0-.6-.2-1-.4-1-.3 0-.8.4-1.1 1zM214.7 223.5c.3.8.9 1.2 1.4.9 1.2-.7 1.1-1.1-.5-1.7-1-.4-1.3-.1-.9.8zM157.4 227.1c-.3.6-.2 1.5.3 2s.9.1.9-1.1c0-2.3-.2-2.4-1.2-.9zM55.4 229.5c0 1.4.3 2.5.7 2.5.3 0 .7-1.1.7-2.5s-.4-2.5-.7-2.5c-.4 0-.7 1.1-.7 2.5zM158.1 232.6c0 1.1.3 1.4.6.6.3-.7.2-1.6-.1-1.9-.3-.4-.6.2-.5 1.3zM131.7 232.7c-1 .9-.9 2.3.1 2.3.5 0 .9-.7.9-1.5 0-1.7-.1-1.8-1-.8zM55.5 236c-.3.5-.1 1 .4 1 .6 0 1.1-.5 1.1-1 0-.6-.2-1-.4-1-.3 0-.8.4-1.1 1zM55.4 240c0 1.1.4 2 .8 2s.8-.9.8-2-.4-2-.8-2-.8.9-.8 2zM157.4 243.1c-.3.6-.2 1.5.3 2s.9.1.9-1.1c0-2.3-.2-2.4-1.2-.9zM158.1 248.6c0 1.1.3 1.4.6.6.3-.7.2-1.6-.1-1.9-.3-.4-.6.2-.5 1.3zM157.5 260c.3.5.8 1 1.1 1 .2 0 .4-.5.4-1 0-.6-.5-1-1.1-1-.5 0-.7.4-.4 1zM356 261.9c0 .6.4 1.3 1 1.6.6.3.7-.1.4-.9-.7-1.8-1.4-2.1-1.4-.7zM380 280.1c0 .5.5.7 1 .4.6-.3 1-.8 1-1.1 0-.2-.4-.4-1-.4-.5 0-1 .5-1 1.1zM72 306c0 .5.5 1 1.1 1 .5 0 .7-.5.4-1-.3-.6-.8-1-1.1-1-.2 0-.4.4-.4 1zM154.8 379.7c.7.3 1.6.2 1.9-.1.4-.3-.2-.6-1.3-.5-1.1 0-1.4.3-.6.6z"/></svg>